<svg width="200" height="200" viewBox="0 0 200 200" fill="none" xmlns="http://www.w3.org/2000/svg">
<rect width="200" height="200" fill="#1E1E1E"/>
<rect width="200" height="200" rx="50" fill="#F67025"/>
<path d="M139.8 128.9C142.2 128.3 144.6 127.9 147 127.7C149.6 127.5 151.9 127.8 153.9 128.6C156.1 129.4 157.9 130.8 159.3 132.8C160.7 134.6 161.4 137.2 161.4 140.6C161.4 143 160.8 145.3 159.6 147.5C158.4 149.7 156.9 151.7 155.1 153.5C153.3 155.3 151.3 156.9 149.1 158.3C146.9 159.5 144.8 160.5 142.8 161.3C137 163.9 130.3 165.9 122.7 167.3C115.3 168.7 107.6 169.2 99.6 168.8C88.8 168.4 78.4 166.3 68.4 162.5C58.6 158.5 50.9 152 45.3 143C40.1 134.2 37 124.4 36 113.6C35 102.8 35.5 92.6 37.5 83C39.7 71.4 43.4 62 48.6 54.8C54 47.4 60.4 41.5 67.8 37.1C76.8 31.9 86.9 29.2 98.1 29C109.3 28.8 120 31 130.2 35.6C137 38.6 143.1 42.7 148.5 47.9C153.9 52.9 158 59 160.8 66.2C161.6 68 162.2 70.2 162.6 72.8C163.2 75.4 163.6 78.2 163.8 81.2C164 84 164 86.8 163.8 89.6C163.6 92.4 163.1 94.9 162.3 97.1C161.1 100.7 159.6 103.5 157.8 105.5C156 107.5 153.7 109 150.9 110C148.1 111 144.7 111.7 140.7 112.1C136.9 112.3 132.3 112.5 126.9 112.7C122.1 112.9 117.6 113 113.4 113C109.2 113 104.9 113 100.5 113C96.1 112.8 91.5 112.7 86.7 112.7C82.1 112.5 76.9 112.3 71.1 112.1C70.5 116.1 71 119.6 72.6 122.6C74.4 125.4 76.8 127.8 79.8 129.8C82.8 131.6 86.2 133 90 134C93.8 135 97.5 135.6 101.1 135.8C107.9 136.2 114.4 135.7 120.6 134.3C126.8 132.7 133.2 130.9 139.8 128.9ZM126.9 70.7C123.1 66.3 119.1 63.1 114.9 61.1C111.7 59.7 108.3 59.1 104.7 59.3C101.3 59.3 98 59.8 94.8 60.8C89 62.2 84.1 65.2 80.1 69.8C79.7 70.2 79 71.2 78 72.8C77 74.2 76 75.7 75 77.3C74.2 78.9 73.6 80.4 73.2 81.8C72.8 83.2 73 83.9 73.8 83.9H132.6C132.4 81.1 131.9 78.8 131.1 77C130.3 75 128.9 72.9 126.9 70.7Z" fill="#1E1E1E"/>
</svg>
