<svg width="1166" height="722" viewBox="0 0 1166 722" fill="none" xmlns="http://www.w3.org/2000/svg">
<rect width="1166" height="722" fill="#1E1E1E"/>
<rect width="1166" height="722" fill="white"/>
<circle cx="164.461" cy="216.813" r="44.4612" fill="#0FA958"/>
<circle cx="902.991" cy="141.461" r="44.4612" fill="#0FA958"/>
<circle cx="363.324" cy="508.487" r="44.4612" fill="#F24E1E"/>
<circle cx="696.705" cy="544.527" r="44.4612" fill="#F24E1E"/>
<rect x="230.596" y="201.667" width="88.2675" height="88.2675" fill="#FFC700"/>
<rect x="437.215" y="500.721" width="88.2675" height="88.2675" fill="#FFC700"/>
<rect x="770.595" y="536.76" width="88.2675" height="88.2675" fill="#FFC700"/>
<rect x="956.786" y="172.988" width="88.2675" height="88.2675" fill="#FFC700"/>
<path d="M430.651 361.768C425.872 361.768 422.075 360.253 419.259 357.224C416.485 354.152 415.099 349.864 415.099 344.36C415.099 341.032 415.717 338.067 416.955 335.464C418.235 332.819 420.005 330.749 422.267 329.256C424.528 327.72 427.152 326.952 430.139 326.952C433.339 326.952 435.984 327.656 438.075 329.064C440.208 330.429 441.808 332.285 442.875 334.632C443.941 336.979 444.475 339.56 444.475 342.376C444.475 343.869 444.411 345.32 444.283 346.728H420.987C421.371 349.843 422.459 352.275 424.251 354.024C426.043 355.773 428.411 356.648 431.355 356.648C433.275 356.648 435.003 356.456 436.539 356.072C438.075 355.645 439.547 355.112 440.955 354.472L442.299 359.4C440.763 360.083 439.035 360.637 437.115 361.064C435.195 361.533 433.04 361.768 430.651 361.768ZM420.923 342.056H439.163C439.163 338.813 438.352 336.317 436.731 334.568C435.109 332.819 432.869 331.944 430.011 331.944C427.536 331.944 425.488 332.819 423.867 334.568C422.245 336.275 421.264 338.771 420.923 342.056ZM465.591 361.768C462.434 361.768 459.661 361.043 457.271 359.592C454.925 358.099 453.111 356.051 451.831 353.448C450.551 350.803 449.911 347.773 449.911 344.36C449.911 341.16 450.551 338.237 451.831 335.592C453.154 332.947 455.031 330.856 457.463 329.32C459.895 327.741 462.754 326.952 466.039 326.952C467.917 326.952 469.559 327.123 470.967 327.464C472.418 327.805 473.805 328.296 475.127 328.936L473.399 333.8C472.205 333.203 471.053 332.776 469.943 332.52C468.877 332.221 467.682 332.072 466.359 332.072C463.373 332.072 460.855 333.16 458.807 335.336C456.802 337.469 455.799 340.435 455.799 344.232C455.799 346.536 456.226 348.627 457.079 350.504C457.933 352.381 459.106 353.875 460.599 354.984C462.135 356.093 463.927 356.648 465.975 356.648C467.597 356.648 468.983 356.477 470.135 356.136C471.287 355.752 472.525 355.219 473.847 354.536L475.639 359.4C474.317 360.125 472.823 360.701 471.159 361.128C469.538 361.555 467.682 361.768 465.591 361.768ZM495.73 361.768C492.572 361.768 489.735 361.043 487.218 359.592C484.7 358.099 482.716 356.051 481.266 353.448C479.858 350.803 479.154 347.773 479.154 344.36C479.154 340.776 479.879 337.683 481.33 335.08C482.78 332.477 484.764 330.472 487.282 329.064C489.799 327.656 492.615 326.952 495.73 326.952C498.844 326.952 501.639 327.656 504.114 329.064C506.631 330.472 508.615 332.477 510.066 335.08C511.559 337.64 512.306 340.691 512.306 344.232C512.306 347.773 511.58 350.867 510.13 353.512C508.679 356.115 506.695 358.141 504.178 359.592C501.703 361.043 498.887 361.768 495.73 361.768ZM495.73 356.648C499.1 356.648 501.724 355.517 503.602 353.256C505.479 350.952 506.418 347.987 506.418 344.36C506.418 342.141 505.948 340.115 505.01 338.28C504.071 336.403 502.791 334.909 501.17 333.8C499.591 332.648 497.778 332.072 495.73 332.072C492.359 332.072 489.735 333.181 487.858 335.4C485.98 337.619 485.042 340.563 485.042 344.232C485.042 346.451 485.511 348.52 486.45 350.44C487.388 352.317 488.647 353.832 490.226 354.984C491.847 356.093 493.682 356.648 495.73 356.648ZM519.964 361V327.72H525.532V333.288C526.726 331.496 528.241 330.003 530.076 328.808C531.91 327.571 534.001 326.952 536.348 326.952C538.993 326.952 541.148 327.592 542.812 328.872C544.518 330.152 545.713 331.859 546.396 333.992C547.718 332.029 549.276 330.365 551.068 329C552.902 327.635 555.164 326.952 557.852 326.952C561.478 326.952 564.166 328.104 565.916 330.408C567.708 332.669 568.604 335.635 568.604 339.304V361H562.844V339.752C562.844 337.448 562.31 335.592 561.244 334.184C560.177 332.733 558.705 332.008 556.828 332.008C554.908 332.008 553.116 332.733 551.452 334.184C549.83 335.592 548.401 337.256 547.164 339.176V361H541.404V339.752C541.404 337.448 540.87 335.592 539.804 334.184C538.737 332.733 537.265 332.008 535.388 332.008C533.51 332.008 531.74 332.712 530.076 334.12C528.412 335.485 526.961 337.107 525.724 338.984V361H519.964ZM578.526 361V327.72H584.094V333.288C585.289 331.496 586.804 330.003 588.638 328.808C590.473 327.571 592.564 326.952 594.91 326.952C597.556 326.952 599.71 327.592 601.374 328.872C603.081 330.152 604.276 331.859 604.958 333.992C606.281 332.029 607.838 330.365 609.63 329C611.465 327.635 613.726 326.952 616.414 326.952C620.041 326.952 622.729 328.104 624.478 330.408C626.27 332.669 627.166 335.635 627.166 339.304V361H621.406V339.752C621.406 337.448 620.873 335.592 619.806 334.184C618.74 332.733 617.268 332.008 615.39 332.008C613.47 332.008 611.678 332.733 610.014 334.184C608.393 335.592 606.964 337.256 605.726 339.176V361H599.966V339.752C599.966 337.448 599.433 335.592 598.366 334.184C597.3 332.733 595.828 332.008 593.95 332.008C592.073 332.008 590.302 332.712 588.638 334.12C586.974 335.485 585.524 337.107 584.286 338.984V361H578.526ZM650.401 361.768C645.622 361.768 641.825 360.253 639.009 357.224C636.235 354.152 634.849 349.864 634.849 344.36C634.849 341.032 635.467 338.067 636.705 335.464C637.985 332.819 639.755 330.749 642.017 329.256C644.278 327.72 646.902 326.952 649.889 326.952C653.089 326.952 655.734 327.656 657.825 329.064C659.958 330.429 661.558 332.285 662.625 334.632C663.691 336.979 664.225 339.56 664.225 342.376C664.225 343.869 664.161 345.32 664.033 346.728H640.737C641.121 349.843 642.209 352.275 644.001 354.024C645.793 355.773 648.161 356.648 651.105 356.648C653.025 356.648 654.753 356.456 656.289 356.072C657.825 355.645 659.297 355.112 660.705 354.472L662.049 359.4C660.513 360.083 658.785 360.637 656.865 361.064C654.945 361.533 652.79 361.768 650.401 361.768ZM640.673 342.056H658.913C658.913 338.813 658.102 336.317 656.481 334.568C654.859 332.819 652.619 331.944 649.761 331.944C647.286 331.944 645.238 332.819 643.617 334.568C641.995 336.275 641.014 338.771 640.673 342.056ZM671.901 361V327.72H677.469V334.952C678.024 333.544 678.771 332.243 679.709 331.048C680.648 329.811 681.821 328.829 683.229 328.104C684.637 327.336 686.28 326.952 688.157 326.952C688.797 326.952 689.437 326.995 690.077 327.08C690.717 327.123 691.251 327.208 691.677 327.336L689.949 333.288C689.139 332.947 688.179 332.776 687.069 332.776C685.491 332.776 683.976 333.224 682.525 334.12C681.117 335.016 679.944 336.403 679.005 338.28C678.109 340.157 677.661 342.547 677.661 345.448V361H671.901ZM708.966 361.768C705.809 361.768 703.036 361.043 700.646 359.592C698.3 358.099 696.486 356.051 695.206 353.448C693.926 350.803 693.286 347.773 693.286 344.36C693.286 341.16 693.926 338.237 695.206 335.592C696.529 332.947 698.406 330.856 700.838 329.32C703.27 327.741 706.129 326.952 709.414 326.952C711.292 326.952 712.934 327.123 714.342 327.464C715.793 327.805 717.18 328.296 718.502 328.936L716.774 333.8C715.58 333.203 714.428 332.776 713.318 332.52C712.252 332.221 711.057 332.072 709.734 332.072C706.748 332.072 704.23 333.16 702.182 335.336C700.177 337.469 699.174 340.435 699.174 344.232C699.174 346.536 699.601 348.627 700.454 350.504C701.308 352.381 702.481 353.875 703.974 354.984C705.51 356.093 707.302 356.648 709.35 356.648C710.972 356.648 712.358 356.477 713.51 356.136C714.662 355.752 715.9 355.219 717.222 354.536L719.014 359.4C717.692 360.125 716.198 360.701 714.534 361.128C712.913 361.555 711.057 361.768 708.966 361.768ZM738.401 361.768C733.622 361.768 729.825 360.253 727.009 357.224C724.235 354.152 722.849 349.864 722.849 344.36C722.849 341.032 723.467 338.067 724.705 335.464C725.985 332.819 727.755 330.749 730.017 329.256C732.278 327.72 734.902 326.952 737.889 326.952C741.089 326.952 743.734 327.656 745.825 329.064C747.958 330.429 749.558 332.285 750.625 334.632C751.691 336.979 752.225 339.56 752.225 342.376C752.225 343.869 752.161 345.32 752.033 346.728H728.737C729.121 349.843 730.209 352.275 732.001 354.024C733.793 355.773 736.161 356.648 739.105 356.648C741.025 356.648 742.753 356.456 744.289 356.072C745.825 355.645 747.297 355.112 748.705 354.472L750.049 359.4C748.513 360.083 746.785 360.637 744.865 361.064C742.945 361.533 740.79 361.768 738.401 361.768ZM728.673 342.056H746.913C746.913 338.813 746.102 336.317 744.481 334.568C742.859 332.819 740.619 331.944 737.761 331.944C735.286 331.944 733.238 332.819 731.617 334.568C729.995 336.275 729.014 338.771 728.673 342.056Z" fill="black"/>
<path d="M419.259 357.224L418.516 357.894L418.521 357.9L418.526 357.905L419.259 357.224ZM416.955 335.464L416.055 335.028L416.052 335.035L416.955 335.464ZM422.267 329.256L422.818 330.091L422.829 330.083L422.267 329.256ZM438.075 329.064L437.516 329.893L437.526 329.9L437.536 329.906L438.075 329.064ZM442.875 334.632L443.785 334.218L443.785 334.218L442.875 334.632ZM444.283 346.728V347.728H445.196L445.279 346.819L444.283 346.728ZM420.987 346.728V345.728H419.856L419.994 346.85L420.987 346.728ZM436.539 356.072L436.781 357.042L436.794 357.039L436.806 357.036L436.539 356.072ZM440.955 354.472L441.92 354.209L441.61 353.076L440.541 353.562L440.955 354.472ZM442.299 359.4L442.705 360.314L443.489 359.965L443.264 359.137L442.299 359.4ZM437.115 361.064L436.898 360.088L436.888 360.09L436.877 360.093L437.115 361.064ZM420.923 342.056L419.928 341.953L419.813 343.056H420.923V342.056ZM439.163 342.056V343.056H440.163V342.056H439.163ZM436.731 334.568L435.997 335.248L435.997 335.248L436.731 334.568ZM423.867 334.568L424.592 335.257L424.6 335.248L423.867 334.568ZM430.651 360.768C426.103 360.768 422.588 359.337 419.991 356.543L418.526 357.905C421.561 361.17 425.642 362.768 430.651 362.768V360.768ZM420.001 356.554C417.442 353.719 416.099 349.7 416.099 344.36H414.099C414.099 350.028 415.529 354.585 418.516 357.894L420.001 356.554ZM416.099 344.36C416.099 341.158 416.693 338.343 417.858 335.893L416.052 335.035C414.741 337.791 414.099 340.906 414.099 344.36H416.099ZM417.855 335.9C419.063 333.402 420.719 331.476 422.818 330.09L421.716 328.422C419.292 330.022 417.406 332.235 416.055 335.028L417.855 335.9ZM422.829 330.083C424.909 328.67 427.333 327.952 430.139 327.952V325.952C426.971 325.952 424.147 326.77 421.705 328.429L422.829 330.083ZM430.139 327.952C433.193 327.952 435.63 328.623 437.516 329.893L438.633 328.235C436.338 326.689 433.484 325.952 430.139 325.952V327.952ZM437.536 329.906C439.503 331.166 440.976 332.871 441.964 335.046L443.785 334.218C442.64 331.699 440.913 329.693 438.614 328.222L437.536 329.906ZM441.964 335.046C442.967 337.251 443.475 339.689 443.475 342.376H445.475C445.475 339.431 444.916 336.706 443.785 334.218L441.964 335.046ZM443.475 342.376C443.475 343.841 443.412 345.261 443.287 346.637L445.279 346.819C445.41 345.379 445.475 343.898 445.475 342.376H443.475ZM444.283 345.728H420.987V347.728H444.283V345.728ZM419.994 346.85C420.399 350.132 421.56 352.795 423.552 354.74L424.949 353.308C423.357 351.754 422.343 349.553 421.979 346.606L419.994 346.85ZM423.552 354.74C425.563 356.703 428.199 357.648 431.355 357.648V355.648C428.623 355.648 426.522 354.844 424.949 353.308L423.552 354.74ZM431.355 357.648C433.34 357.648 435.151 357.45 436.781 357.042L436.296 355.102C434.854 355.462 433.21 355.648 431.355 355.648V357.648ZM436.806 357.036C438.391 356.595 439.912 356.044 441.369 355.382L440.541 353.562C439.182 354.18 437.759 354.695 436.271 355.108L436.806 357.036ZM439.99 354.735L441.334 359.663L443.264 359.137L441.92 354.209L439.99 354.735ZM441.893 358.486C440.427 359.138 438.764 359.673 436.898 360.088L437.332 362.04C439.306 361.601 441.099 361.028 442.705 360.314L441.893 358.486ZM436.877 360.093C435.049 360.539 432.976 360.768 430.651 360.768V362.768C433.104 362.768 435.34 362.527 437.352 362.035L436.877 360.093ZM420.923 343.056H439.163V341.056H420.923V343.056ZM440.163 342.056C440.163 338.653 439.311 335.88 437.464 333.888L435.997 335.248C437.394 336.754 438.163 338.973 438.163 342.056H440.163ZM437.464 333.888C435.616 331.895 433.088 330.944 430.011 330.944V332.944C432.651 332.944 434.602 333.743 435.997 335.248L437.464 333.888ZM430.011 330.944C427.269 330.944 424.952 331.926 423.133 333.888L424.6 335.248C426.024 333.711 427.803 332.944 430.011 332.944V330.944ZM423.142 333.879C421.318 335.799 420.283 338.534 419.928 341.953L421.917 342.159C422.245 339.007 423.173 336.75 424.592 335.257L423.142 333.879ZM457.271 359.592L456.734 360.436L456.743 360.441L456.752 360.447L457.271 359.592ZM451.831 353.448L450.931 353.884L450.934 353.889L451.831 353.448ZM451.831 335.592L450.937 335.145L450.931 335.156L451.831 335.592ZM457.463 329.32L457.997 330.166L458.008 330.159L457.463 329.32ZM470.967 327.464L470.732 328.436L470.738 328.437L470.967 327.464ZM475.127 328.936L476.07 329.271L476.37 328.426L475.563 328.036L475.127 328.936ZM473.399 333.8L472.952 334.694L473.963 335.2L474.342 334.135L473.399 333.8ZM469.943 332.52L469.674 333.483L469.696 333.489L469.718 333.494L469.943 332.52ZM458.807 335.336L458.079 334.651L458.079 334.651L458.807 335.336ZM460.599 354.984L460.003 355.787L460.014 355.795L460.599 354.984ZM470.135 356.136L470.419 357.095L470.435 357.09L470.451 357.085L470.135 356.136ZM473.847 354.536L474.786 354.19L474.394 353.128L473.389 353.647L473.847 354.536ZM475.639 359.4L476.12 360.277L476.875 359.863L476.578 359.054L475.639 359.4ZM471.159 361.128L470.911 360.159L470.905 360.161L471.159 361.128ZM465.591 360.768C462.593 360.768 460.004 360.081 457.79 358.737L456.752 360.447C459.318 362.004 462.275 362.768 465.591 362.768V360.768ZM457.808 358.748C455.623 357.358 453.931 355.452 452.729 353.007L450.934 353.889C452.291 356.649 454.226 358.84 456.734 360.436L457.808 358.748ZM452.731 353.012C451.527 350.523 450.911 347.647 450.911 344.36H448.911C448.911 347.9 449.576 351.082 450.931 353.884L452.731 353.012ZM450.911 344.36C450.911 341.297 451.523 338.525 452.731 336.028L450.931 335.156C449.58 337.949 448.911 341.023 448.911 344.36H450.911ZM452.726 336.039C453.969 333.552 455.724 331.601 457.997 330.165L456.929 328.475C454.339 330.111 452.339 332.341 450.937 335.145L452.726 336.039ZM458.008 330.159C460.257 328.699 462.921 327.952 466.039 327.952V325.952C462.587 325.952 459.534 326.784 456.919 328.481L458.008 330.159ZM466.039 327.952C467.859 327.952 469.42 328.118 470.732 328.436L471.203 326.492C469.699 326.128 467.974 325.952 466.039 325.952V327.952ZM470.738 328.437C472.119 328.762 473.436 329.229 474.692 329.836L475.563 328.036C474.173 327.363 472.717 326.848 471.196 326.491L470.738 328.437ZM474.185 328.601L472.457 333.465L474.342 334.135L476.07 329.271L474.185 328.601ZM473.846 332.906C472.593 332.279 471.366 331.822 470.168 331.546L469.718 333.494C470.739 333.73 471.816 334.127 472.952 334.694L473.846 332.906ZM470.213 331.557C469.043 331.23 467.756 331.072 466.359 331.072V333.072C467.608 333.072 468.71 333.213 469.674 333.483L470.213 331.557ZM466.359 331.072C463.097 331.072 460.316 332.274 458.079 334.651L459.535 336.021C461.395 334.046 463.648 333.072 466.359 333.072V331.072ZM458.079 334.651C455.852 337.02 454.799 340.258 454.799 344.232H456.799C456.799 340.611 457.752 337.919 459.536 336.021L458.079 334.651ZM454.799 344.232C454.799 346.662 455.25 348.896 456.169 350.918L457.99 350.09C457.202 348.357 456.799 346.41 456.799 344.232H454.799ZM456.169 350.918C457.085 352.932 458.359 354.566 460.003 355.787L461.196 354.181C459.852 353.184 458.781 351.83 457.99 350.09L456.169 350.918ZM460.014 355.795C461.734 357.037 463.735 357.648 465.975 357.648V355.648C464.12 355.648 462.536 355.149 461.185 354.173L460.014 355.795ZM465.975 357.648C467.662 357.648 469.149 357.471 470.419 357.095L469.851 355.177C468.817 355.484 467.532 355.648 465.975 355.648V357.648ZM470.451 357.085C471.662 356.681 472.947 356.126 474.306 355.425L473.389 353.647C472.102 354.311 470.913 354.823 469.819 355.187L470.451 357.085ZM472.909 354.882L474.701 359.746L476.578 359.054L474.786 354.19L472.909 354.882ZM475.158 358.523C473.918 359.203 472.505 359.751 470.911 360.159L471.408 362.097C473.142 361.652 474.715 361.047 476.12 360.277L475.158 358.523ZM470.905 360.161C469.384 360.561 467.616 360.768 465.591 360.768V362.768C467.748 362.768 469.692 362.548 471.414 362.095L470.905 360.161ZM487.218 359.592L486.708 360.452L486.718 360.458L487.218 359.592ZM481.266 353.448L480.383 353.918L480.388 353.926L480.392 353.935L481.266 353.448ZM481.33 335.08L480.456 334.593L480.456 334.593L481.33 335.08ZM487.282 329.064L487.77 329.937L487.77 329.937L487.282 329.064ZM504.114 329.064L503.619 329.933L503.626 329.937L504.114 329.064ZM510.066 335.08L509.192 335.567L509.197 335.575L509.202 335.584L510.066 335.08ZM510.13 353.512L511.003 353.999L511.007 353.993L510.13 353.512ZM504.178 359.592L503.678 358.726L503.672 358.729L504.178 359.592ZM503.602 353.256L504.371 353.895L504.377 353.888L503.602 353.256ZM505.01 338.28L504.115 338.727L504.12 338.735L505.01 338.28ZM501.17 333.8L500.58 334.608L500.593 334.617L500.605 334.625L501.17 333.8ZM487.858 335.4L488.621 336.046L488.621 336.046L487.858 335.4ZM486.45 350.44L485.551 350.879L485.555 350.887L486.45 350.44ZM490.226 354.984L489.636 355.792L489.649 355.801L489.661 355.809L490.226 354.984ZM495.73 360.768C492.732 360.768 490.07 360.081 487.717 358.726L486.718 360.458C489.401 362.004 492.413 362.768 495.73 362.768V360.768ZM487.728 358.732C485.365 357.33 483.506 355.412 482.139 352.961L480.392 353.935C481.927 356.689 484.035 358.867 486.708 360.452L487.728 358.732ZM482.148 352.978C480.828 350.496 480.154 347.632 480.154 344.36H478.154C478.154 347.914 478.888 351.109 480.383 353.918L482.148 352.978ZM480.154 344.36C480.154 340.912 480.851 337.993 482.203 335.567L480.456 334.593C478.907 337.372 478.154 340.64 478.154 344.36H480.154ZM482.203 335.567C483.567 333.12 485.42 331.251 487.77 329.937L486.794 328.191C484.109 329.693 481.994 331.834 480.456 334.593L482.203 335.567ZM487.77 329.937C490.126 328.619 492.772 327.952 495.73 327.952V325.952C492.458 325.952 489.472 326.693 486.794 328.191L487.77 329.937ZM495.73 327.952C498.688 327.952 501.309 328.619 503.619 329.933L504.608 328.195C501.969 326.693 499.001 325.952 495.73 325.952V327.952ZM503.626 329.937C505.976 331.251 507.829 333.12 509.192 335.567L510.939 334.593C509.401 331.834 507.286 329.693 504.602 328.191L503.626 329.937ZM509.202 335.584C510.59 337.964 511.306 340.833 511.306 344.232H513.306C513.306 340.548 512.528 337.316 510.93 334.576L509.202 335.584ZM511.306 344.232C511.306 347.635 510.61 350.557 509.253 353.031L511.007 353.993C512.551 351.176 513.306 347.912 513.306 344.232H511.306ZM509.256 353.025C507.891 355.474 506.035 357.368 503.678 358.726L504.677 360.458C507.355 358.915 509.467 356.755 511.003 353.999L509.256 353.025ZM503.672 358.729C501.366 360.081 498.728 360.768 495.73 360.768V362.768C499.046 362.768 502.04 362.004 504.683 360.455L503.672 358.729ZM495.73 357.648C499.349 357.648 502.275 356.42 504.371 353.895L502.832 352.617C501.174 354.615 498.852 355.648 495.73 355.648V357.648ZM504.377 353.888C506.43 351.368 507.418 348.164 507.418 344.36H505.418C505.418 347.809 504.528 350.536 502.827 352.624L504.377 353.888ZM507.418 344.36C507.418 341.995 506.916 339.811 505.9 337.825L504.12 338.735C504.981 340.419 505.418 342.287 505.418 344.36H507.418ZM505.904 337.833C504.895 335.814 503.506 334.187 501.734 332.975L500.605 334.625C502.077 335.632 503.247 336.991 504.115 338.727L505.904 337.833ZM501.759 332.992C500.001 331.709 497.979 331.072 495.73 331.072V333.072C497.577 333.072 499.181 333.587 500.58 334.608L501.759 332.992ZM495.73 331.072C492.117 331.072 489.193 332.274 487.094 334.754L488.621 336.046C490.277 334.089 492.601 333.072 495.73 333.072V331.072ZM487.094 334.754C485.028 337.197 484.042 340.39 484.042 344.232H486.042C486.042 340.735 486.933 338.041 488.621 336.046L487.094 334.754ZM484.042 344.232C484.042 346.597 484.543 348.817 485.551 350.879L487.348 350.001C486.479 348.223 486.042 346.304 486.042 344.232H484.042ZM485.555 350.887C486.56 352.897 487.919 354.539 489.636 355.792L490.815 354.176C489.375 353.125 488.217 351.738 487.344 349.993L485.555 350.887ZM489.661 355.809C491.456 357.037 493.489 357.648 495.73 357.648V355.648C493.874 355.648 492.238 355.149 490.79 354.159L489.661 355.809ZM519.964 361H518.964V362H519.964V361ZM519.964 327.72V326.72H518.964V327.72H519.964ZM525.532 327.72H526.532V326.72H525.532V327.72ZM525.532 333.288H524.532V336.591L526.364 333.843L525.532 333.288ZM530.076 328.808L530.621 329.646L530.628 329.642L530.635 329.637L530.076 328.808ZM542.812 328.872L542.202 329.665L542.212 329.672L542.812 328.872ZM546.396 333.992L545.443 334.297L546.072 336.262L547.225 334.551L546.396 333.992ZM551.068 329L550.471 328.198L550.462 328.205L551.068 329ZM565.916 330.408L565.119 331.013L565.126 331.021L565.132 331.029L565.916 330.408ZM568.604 361V362H569.604V361H568.604ZM562.844 361H561.844V362H562.844V361ZM561.244 334.184L560.438 334.776L560.442 334.782L560.447 334.788L561.244 334.184ZM551.452 334.184L552.107 334.939L552.109 334.938L551.452 334.184ZM547.164 339.176L546.323 338.634L546.164 338.882V339.176H547.164ZM547.164 361V362H548.164V361H547.164ZM541.404 361H540.404V362H541.404V361ZM539.804 334.184L538.998 334.776L539.002 334.782L539.007 334.788L539.804 334.184ZM530.076 334.12L530.71 334.893L530.716 334.888L530.722 334.883L530.076 334.12ZM525.724 338.984L524.889 338.434L524.724 338.684V338.984H525.724ZM525.724 361V362H526.724V361H525.724ZM520.964 361V327.72H518.964V361H520.964ZM519.964 328.72H525.532V326.72H519.964V328.72ZM524.532 327.72V333.288H526.532V327.72H524.532ZM526.364 333.843C527.482 332.165 528.899 330.768 530.621 329.646L529.53 327.97C527.584 329.237 525.971 330.827 524.7 332.733L526.364 333.843ZM530.635 329.637C532.294 328.518 534.188 327.952 536.348 327.952V325.952C533.815 325.952 531.527 326.623 529.517 327.979L530.635 329.637ZM536.348 327.952C538.831 327.952 540.754 328.551 542.202 329.665L543.421 328.079C541.542 326.633 539.155 325.952 536.348 325.952V327.952ZM542.212 329.672C543.744 330.821 544.821 332.351 545.443 334.297L547.348 333.687C546.606 331.367 545.293 329.483 543.412 328.072L542.212 329.672ZM547.225 334.551C548.49 332.674 549.973 331.091 551.674 329.795L550.462 328.205C548.579 329.639 546.947 331.385 545.566 333.433L547.225 334.551ZM551.665 329.802C553.298 328.587 555.34 327.952 557.852 327.952V325.952C554.988 325.952 552.507 326.683 550.471 328.198L551.665 329.802ZM557.852 327.952C561.253 327.952 563.606 329.02 565.119 331.013L566.712 329.803C564.726 327.188 561.703 325.952 557.852 325.952V327.952ZM565.132 331.029C566.75 333.07 567.604 335.798 567.604 339.304H569.604C569.604 335.471 568.666 332.268 566.699 329.787L565.132 331.029ZM567.604 339.304V361H569.604V339.304H567.604ZM568.604 360H562.844V362H568.604V360ZM563.844 361V339.752H561.844V361H563.844ZM563.844 339.752C563.844 337.296 563.274 335.208 562.041 333.58L560.447 334.788C561.347 335.976 561.844 337.6 561.844 339.752H563.844ZM562.049 333.592C560.785 331.872 559.007 331.008 556.828 331.008V333.008C558.403 333.008 559.569 333.595 560.438 334.776L562.049 333.592ZM556.828 331.008C554.63 331.008 552.612 331.846 550.795 333.43L552.109 334.938C553.62 333.621 555.185 333.008 556.828 333.008V331.008ZM550.796 333.429C549.099 334.903 547.608 336.64 546.323 338.634L548.004 339.718C549.194 337.872 550.562 336.281 552.107 334.939L550.796 333.429ZM546.164 339.176V361H548.164V339.176H546.164ZM547.164 360H541.404V362H547.164V360ZM542.404 361V339.752H540.404V361H542.404ZM542.404 339.752C542.404 337.296 541.834 335.208 540.601 333.58L539.007 334.788C539.906 335.976 540.404 337.6 540.404 339.752H542.404ZM540.609 333.592C539.345 331.872 537.567 331.008 535.388 331.008V333.008C536.963 333.008 538.129 333.595 538.998 334.776L540.609 333.592ZM535.388 331.008C533.237 331.008 531.244 331.822 529.43 333.357L530.722 334.883C532.236 333.602 533.784 333.008 535.388 333.008V331.008ZM529.441 333.347C527.696 334.779 526.179 336.476 524.889 338.434L526.559 339.534C527.743 337.737 529.127 336.192 530.71 334.893L529.441 333.347ZM524.724 338.984V361H526.724V338.984H524.724ZM525.724 360H519.964V362H525.724V360ZM578.526 361H577.526V362H578.526V361ZM578.526 327.72V326.72H577.526V327.72H578.526ZM584.094 327.72H585.094V326.72H584.094V327.72ZM584.094 333.288H583.094V336.591L584.926 333.843L584.094 333.288ZM588.638 328.808L589.184 329.646L589.191 329.642L589.197 329.637L588.638 328.808ZM601.374 328.872L600.764 329.665L600.774 329.672L601.374 328.872ZM604.958 333.992L604.006 334.297L604.635 336.262L605.788 334.551L604.958 333.992ZM609.63 329L609.033 328.198L609.024 328.205L609.63 329ZM624.478 330.408L623.682 331.013L623.688 331.021L623.695 331.029L624.478 330.408ZM627.166 361V362H628.166V361H627.166ZM621.406 361H620.406V362H621.406V361ZM619.806 334.184L619.001 334.776L619.005 334.782L619.009 334.788L619.806 334.184ZM610.014 334.184L610.67 334.939L610.671 334.938L610.014 334.184ZM605.726 339.176L604.886 338.634L604.726 338.882V339.176H605.726ZM605.726 361V362H606.726V361H605.726ZM599.966 361H598.966V362H599.966V361ZM598.366 334.184L597.561 334.776L597.565 334.782L597.569 334.788L598.366 334.184ZM588.638 334.12L589.273 334.893L589.278 334.888L589.284 334.883L588.638 334.12ZM584.286 338.984L583.451 338.434L583.286 338.684V338.984H584.286ZM584.286 361V362H585.286V361H584.286ZM579.526 361V327.72H577.526V361H579.526ZM578.526 328.72H584.094V326.72H578.526V328.72ZM583.094 327.72V333.288H585.094V327.72H583.094ZM584.926 333.843C586.044 332.165 587.461 330.768 589.184 329.646L588.093 327.97C586.146 329.237 584.533 330.827 583.262 332.733L584.926 333.843ZM589.197 329.637C590.857 328.518 592.75 327.952 594.91 327.952V325.952C592.377 325.952 590.089 326.623 588.079 327.979L589.197 329.637ZM594.91 327.952C597.393 327.952 599.316 328.551 600.765 329.665L601.984 328.079C600.104 326.633 597.718 325.952 594.91 325.952V327.952ZM600.774 329.672C602.306 330.821 603.383 332.351 604.006 334.297L605.911 333.687C605.168 331.367 603.856 329.483 601.974 328.072L600.774 329.672ZM605.788 334.551C607.052 332.674 608.535 331.091 610.236 329.795L609.024 328.205C607.141 329.639 605.51 331.385 604.129 333.433L605.788 334.551ZM610.227 329.802C611.861 328.587 613.902 327.952 616.414 327.952V325.952C613.55 325.952 611.069 326.683 609.033 328.198L610.227 329.802ZM616.414 327.952C619.816 327.952 622.169 329.02 623.682 331.013L625.275 329.803C623.289 327.188 620.266 325.952 616.414 325.952V327.952ZM623.695 331.029C625.312 333.07 626.166 335.798 626.166 339.304H628.166C628.166 335.471 627.228 332.268 625.262 329.787L623.695 331.029ZM626.166 339.304V361H628.166V339.304H626.166ZM627.166 360H621.406V362H627.166V360ZM622.406 361V339.752H620.406V361H622.406ZM622.406 339.752C622.406 337.296 621.837 335.208 620.603 333.58L619.009 334.788C619.909 335.976 620.406 337.6 620.406 339.752H622.406ZM620.612 333.592C619.348 331.872 617.57 331.008 615.39 331.008V333.008C616.965 333.008 618.132 333.595 619.001 334.776L620.612 333.592ZM615.39 331.008C613.193 331.008 611.174 331.846 609.357 333.43L610.671 334.938C612.182 333.621 613.748 333.008 615.39 333.008V331.008ZM609.359 333.429C607.661 334.903 606.171 336.64 604.886 338.634L606.567 339.718C607.756 337.872 609.124 336.281 610.67 334.939L609.359 333.429ZM604.726 339.176V361H606.726V339.176H604.726ZM605.726 360H599.966V362H605.726V360ZM600.966 361V339.752H598.966V361H600.966ZM600.966 339.752C600.966 337.296 600.397 335.208 599.163 333.58L597.569 334.788C598.469 335.976 598.966 337.6 598.966 339.752H600.966ZM599.172 333.592C597.908 331.872 596.13 331.008 593.95 331.008V333.008C595.525 333.008 596.692 333.595 597.561 334.776L599.172 333.592ZM593.95 331.008C591.799 331.008 589.806 331.822 587.992 333.357L589.284 334.883C590.798 333.602 592.347 333.008 593.95 333.008V331.008ZM588.004 333.347C586.259 334.779 584.741 336.476 583.451 338.434L585.121 339.534C586.306 337.737 587.69 336.192 589.273 334.893L588.004 333.347ZM583.286 338.984V361H585.286V338.984H583.286ZM584.286 360H578.526V362H584.286V360ZM639.009 357.224L638.266 357.894L638.271 357.9L638.276 357.905L639.009 357.224ZM636.705 335.464L635.805 335.028L635.802 335.035L636.705 335.464ZM642.017 329.256L642.568 330.091L642.579 330.083L642.017 329.256ZM657.825 329.064L657.266 329.893L657.276 329.9L657.286 329.906L657.825 329.064ZM662.625 334.632L663.535 334.218L663.535 334.218L662.625 334.632ZM664.033 346.728V347.728H664.946L665.029 346.819L664.033 346.728ZM640.737 346.728V345.728H639.606L639.744 346.85L640.737 346.728ZM656.289 356.072L656.531 357.042L656.544 357.039L656.556 357.036L656.289 356.072ZM660.705 354.472L661.67 354.209L661.36 353.076L660.291 353.562L660.705 354.472ZM662.049 359.4L662.455 360.314L663.239 359.965L663.014 359.137L662.049 359.4ZM656.865 361.064L656.648 360.088L656.638 360.09L656.627 360.093L656.865 361.064ZM640.673 342.056L639.678 341.953L639.563 343.056H640.673V342.056ZM658.913 342.056V343.056H659.913V342.056H658.913ZM656.481 334.568L655.747 335.248L655.747 335.248L656.481 334.568ZM643.617 334.568L644.342 335.257L644.35 335.248L643.617 334.568ZM650.401 360.768C645.853 360.768 642.338 359.337 639.741 356.543L638.276 357.905C641.311 361.17 645.392 362.768 650.401 362.768V360.768ZM639.751 356.554C637.192 353.719 635.849 349.7 635.849 344.36H633.849C633.849 350.028 635.279 354.585 638.266 357.894L639.751 356.554ZM635.849 344.36C635.849 341.158 636.443 338.343 637.608 335.893L635.802 335.035C634.491 337.791 633.849 340.906 633.849 344.36H635.849ZM637.605 335.9C638.813 333.402 640.469 331.476 642.568 330.09L641.466 328.422C639.042 330.022 637.156 332.235 635.805 335.028L637.605 335.9ZM642.579 330.083C644.659 328.67 647.083 327.952 649.889 327.952V325.952C646.721 325.952 643.897 326.77 641.455 328.429L642.579 330.083ZM649.889 327.952C652.943 327.952 655.38 328.623 657.266 329.893L658.383 328.235C656.088 326.689 653.234 325.952 649.889 325.952V327.952ZM657.286 329.906C659.253 331.166 660.726 332.871 661.714 335.046L663.535 334.218C662.39 331.699 660.663 329.693 658.364 328.222L657.286 329.906ZM661.714 335.046C662.717 337.251 663.225 339.689 663.225 342.376H665.225C665.225 339.431 664.666 336.706 663.535 334.218L661.714 335.046ZM663.225 342.376C663.225 343.841 663.162 345.261 663.037 346.637L665.029 346.819C665.16 345.379 665.225 343.898 665.225 342.376H663.225ZM664.033 345.728H640.737V347.728H664.033V345.728ZM639.744 346.85C640.149 350.132 641.31 352.795 643.302 354.74L644.699 353.308C643.107 351.754 642.093 349.553 641.729 346.606L639.744 346.85ZM643.302 354.74C645.313 356.703 647.949 357.648 651.105 357.648V355.648C648.373 355.648 646.272 354.844 644.699 353.308L643.302 354.74ZM651.105 357.648C653.09 357.648 654.901 357.45 656.531 357.042L656.046 355.102C654.604 355.462 652.96 355.648 651.105 355.648V357.648ZM656.556 357.036C658.141 356.595 659.662 356.044 661.119 355.382L660.291 353.562C658.932 354.18 657.509 354.695 656.021 355.108L656.556 357.036ZM659.74 354.735L661.084 359.663L663.014 359.137L661.67 354.209L659.74 354.735ZM661.643 358.486C660.177 359.138 658.514 359.673 656.648 360.088L657.082 362.04C659.056 361.601 660.849 361.028 662.455 360.314L661.643 358.486ZM656.627 360.093C654.799 360.539 652.726 360.768 650.401 360.768V362.768C652.854 362.768 655.09 362.527 657.102 362.035L656.627 360.093ZM640.673 343.056H658.913V341.056H640.673V343.056ZM659.913 342.056C659.913 338.653 659.061 335.88 657.214 333.888L655.747 335.248C657.144 336.754 657.913 338.973 657.913 342.056H659.913ZM657.214 333.888C655.366 331.895 652.838 330.944 649.761 330.944V332.944C652.401 332.944 654.352 333.743 655.747 335.248L657.214 333.888ZM649.761 330.944C647.019 330.944 644.702 331.926 642.883 333.888L644.35 335.248C645.774 333.711 647.553 332.944 649.761 332.944V330.944ZM642.892 333.879C641.068 335.799 640.033 338.534 639.678 341.953L641.667 342.159C641.995 339.007 642.923 336.75 644.342 335.257L642.892 333.879ZM671.901 361H670.901V362H671.901V361ZM671.901 327.72V326.72H670.901V327.72H671.901ZM677.469 327.72H678.469V326.72H677.469V327.72ZM677.469 334.952H676.469L678.4 335.319L677.469 334.952ZM679.709 331.048L680.496 331.666L680.501 331.659L680.506 331.652L679.709 331.048ZM683.229 328.104L683.687 328.993L683.698 328.988L683.708 328.982L683.229 328.104ZM690.077 327.08L689.945 328.071L689.978 328.076L690.011 328.078L690.077 327.08ZM691.677 327.336L692.638 327.615L692.914 326.663L691.965 326.378L691.677 327.336ZM689.949 333.288L689.561 334.21L690.596 334.646L690.91 333.567L689.949 333.288ZM682.525 334.12L682 333.269L681.988 333.276L682.525 334.12ZM679.005 338.28L678.111 337.833L678.107 337.841L678.103 337.849L679.005 338.28ZM677.661 361V362H678.661V361H677.661ZM672.901 361V327.72H670.901V361H672.901ZM671.901 328.72H677.469V326.72H671.901V328.72ZM676.469 327.72V334.952H678.469V327.72H676.469ZM678.4 335.319C678.919 334.001 679.617 332.784 680.496 331.666L678.923 330.43C677.925 331.701 677.129 333.087 676.539 334.585L678.4 335.319ZM680.506 331.652C681.353 330.536 682.409 329.651 683.687 328.993L682.771 327.215C681.233 328.007 679.943 329.085 678.913 330.444L680.506 331.652ZM683.708 328.982C684.946 328.307 686.419 327.952 688.157 327.952V325.952C686.141 325.952 684.329 326.365 682.75 327.226L683.708 328.982ZM688.157 327.952C688.753 327.952 689.349 327.992 689.945 328.071L690.209 326.089C689.526 325.998 688.842 325.952 688.157 325.952V327.952ZM690.011 328.078C690.606 328.117 691.059 328.195 691.39 328.294L691.965 326.378C691.442 326.221 690.829 326.128 690.144 326.082L690.011 328.078ZM690.717 327.057L688.989 333.009L690.91 333.567L692.638 327.615L690.717 327.057ZM690.337 332.366C689.376 331.962 688.278 331.776 687.069 331.776V333.776C688.079 333.776 688.901 333.932 689.561 334.21L690.337 332.366ZM687.069 331.776C685.29 331.776 683.595 332.284 682 333.269L683.051 334.971C684.357 334.164 685.691 333.776 687.069 333.776V331.776ZM681.988 333.276C680.393 334.292 679.11 335.835 678.111 337.833L679.9 338.727C680.778 336.971 681.842 335.74 683.062 334.964L681.988 333.276ZM678.103 337.849C677.122 339.903 676.661 342.453 676.661 345.448H678.661C678.661 342.641 679.096 340.411 679.908 338.711L678.103 337.849ZM676.661 345.448V361H678.661V345.448H676.661ZM677.661 360H671.901V362H677.661V360ZM700.646 359.592L700.109 360.436L700.118 360.441L700.127 360.447L700.646 359.592ZM695.206 353.448L694.306 353.884L694.309 353.889L695.206 353.448ZM695.206 335.592L694.312 335.145L694.306 335.156L695.206 335.592ZM700.838 329.32L701.372 330.166L701.383 330.159L700.838 329.32ZM714.342 327.464L714.107 328.436L714.113 328.437L714.342 327.464ZM718.502 328.936L719.445 329.271L719.745 328.426L718.938 328.036L718.502 328.936ZM716.774 333.8L716.327 334.694L717.338 335.2L717.717 334.135L716.774 333.8ZM713.318 332.52L713.049 333.483L713.071 333.489L713.093 333.494L713.318 332.52ZM702.182 335.336L701.454 334.651L701.454 334.651L702.182 335.336ZM703.974 354.984L703.378 355.787L703.389 355.795L703.974 354.984ZM713.51 356.136L713.794 357.095L713.81 357.09L713.826 357.085L713.51 356.136ZM717.222 354.536L718.161 354.19L717.769 353.128L716.764 353.647L717.222 354.536ZM719.014 359.4L719.495 360.277L720.25 359.863L719.953 359.054L719.014 359.4ZM714.534 361.128L714.286 360.159L714.28 360.161L714.534 361.128ZM708.966 360.768C705.968 360.768 703.379 360.081 701.165 358.737L700.127 360.447C702.693 362.004 705.65 362.768 708.966 362.768V360.768ZM701.183 358.748C698.998 357.358 697.306 355.452 696.104 353.007L694.309 353.889C695.666 356.649 697.601 358.84 700.109 360.436L701.183 358.748ZM696.106 353.012C694.902 350.523 694.286 347.647 694.286 344.36H692.286C692.286 347.9 692.951 351.082 694.306 353.884L696.106 353.012ZM694.286 344.36C694.286 341.297 694.898 338.525 696.106 336.028L694.306 335.156C692.955 337.949 692.286 341.023 692.286 344.36H694.286ZM696.101 336.039C697.344 333.552 699.099 331.601 701.372 330.165L700.304 328.475C697.714 330.111 695.714 332.341 694.312 335.145L696.101 336.039ZM701.383 330.159C703.632 328.699 706.296 327.952 709.414 327.952V325.952C705.962 325.952 702.909 326.784 700.294 328.481L701.383 330.159ZM709.414 327.952C711.234 327.952 712.795 328.118 714.107 328.436L714.578 326.492C713.074 326.128 711.349 325.952 709.414 325.952V327.952ZM714.113 328.437C715.494 328.762 716.811 329.229 718.067 329.836L718.938 328.036C717.548 327.363 716.092 326.848 714.571 326.491L714.113 328.437ZM717.56 328.601L715.832 333.465L717.717 334.135L719.445 329.271L717.56 328.601ZM717.221 332.906C715.968 332.279 714.741 331.822 713.543 331.546L713.093 333.494C714.114 333.73 715.191 334.127 716.327 334.694L717.221 332.906ZM713.588 331.557C712.418 331.23 711.131 331.072 709.734 331.072V333.072C710.983 333.072 712.085 333.213 713.049 333.483L713.588 331.557ZM709.734 331.072C706.472 331.072 703.691 332.274 701.454 334.651L702.91 336.021C704.77 334.046 707.023 333.072 709.734 333.072V331.072ZM701.454 334.651C699.227 337.02 698.174 340.258 698.174 344.232H700.174C700.174 340.611 701.127 337.919 702.911 336.021L701.454 334.651ZM698.174 344.232C698.174 346.662 698.625 348.896 699.544 350.918L701.365 350.09C700.577 348.357 700.174 346.41 700.174 344.232H698.174ZM699.544 350.918C700.46 352.932 701.734 354.566 703.378 355.787L704.571 354.181C703.227 353.184 702.156 351.83 701.365 350.09L699.544 350.918ZM703.389 355.795C705.109 357.037 707.11 357.648 709.35 357.648V355.648C707.495 355.648 705.911 355.149 704.56 354.173L703.389 355.795ZM709.35 357.648C711.037 357.648 712.524 357.471 713.794 357.095L713.226 355.177C712.192 355.484 710.907 355.648 709.35 355.648V357.648ZM713.826 357.085C715.037 356.681 716.322 356.126 717.681 355.425L716.764 353.647C715.477 354.311 714.288 354.823 713.194 355.187L713.826 357.085ZM716.284 354.882L718.076 359.746L719.953 359.054L718.161 354.19L716.284 354.882ZM718.533 358.523C717.293 359.203 715.88 359.751 714.286 360.159L714.783 362.097C716.517 361.652 718.09 361.047 719.495 360.277L718.533 358.523ZM714.28 360.161C712.759 360.561 710.991 360.768 708.966 360.768V362.768C711.123 362.768 713.067 362.548 714.789 362.095L714.28 360.161ZM727.009 357.224L726.266 357.894L726.271 357.9L726.276 357.905L727.009 357.224ZM724.705 335.464L723.805 335.028L723.802 335.035L724.705 335.464ZM730.017 329.256L730.568 330.091L730.579 330.083L730.017 329.256ZM745.825 329.064L745.266 329.893L745.276 329.9L745.286 329.906L745.825 329.064ZM750.625 334.632L751.535 334.218L751.535 334.218L750.625 334.632ZM752.033 346.728V347.728H752.946L753.029 346.819L752.033 346.728ZM728.737 346.728V345.728H727.606L727.744 346.85L728.737 346.728ZM744.289 356.072L744.531 357.042L744.544 357.039L744.556 357.036L744.289 356.072ZM748.705 354.472L749.67 354.209L749.36 353.076L748.291 353.562L748.705 354.472ZM750.049 359.4L750.455 360.314L751.239 359.965L751.014 359.137L750.049 359.4ZM744.865 361.064L744.648 360.088L744.638 360.09L744.627 360.093L744.865 361.064ZM728.673 342.056L727.678 341.953L727.563 343.056H728.673V342.056ZM746.913 342.056V343.056H747.913V342.056H746.913ZM744.481 334.568L743.747 335.248L743.747 335.248L744.481 334.568ZM731.617 334.568L732.342 335.257L732.35 335.248L731.617 334.568ZM738.401 360.768C733.853 360.768 730.338 359.337 727.741 356.543L726.276 357.905C729.311 361.17 733.392 362.768 738.401 362.768V360.768ZM727.751 356.554C725.192 353.719 723.849 349.7 723.849 344.36H721.849C721.849 350.028 723.279 354.585 726.266 357.894L727.751 356.554ZM723.849 344.36C723.849 341.158 724.443 338.343 725.608 335.893L723.802 335.035C722.491 337.791 721.849 340.906 721.849 344.36H723.849ZM725.605 335.9C726.813 333.402 728.469 331.476 730.568 330.09L729.466 328.422C727.042 330.022 725.156 332.235 723.805 335.028L725.605 335.9ZM730.579 330.083C732.659 328.67 735.083 327.952 737.889 327.952V325.952C734.721 325.952 731.897 326.77 729.455 328.429L730.579 330.083ZM737.889 327.952C740.943 327.952 743.38 328.623 745.266 329.893L746.383 328.235C744.088 326.689 741.234 325.952 737.889 325.952V327.952ZM745.286 329.906C747.253 331.166 748.726 332.871 749.714 335.046L751.535 334.218C750.39 331.699 748.663 329.693 746.364 328.222L745.286 329.906ZM749.714 335.046C750.717 337.251 751.225 339.689 751.225 342.376H753.225C753.225 339.431 752.666 336.706 751.535 334.218L749.714 335.046ZM751.225 342.376C751.225 343.841 751.162 345.261 751.037 346.637L753.029 346.819C753.16 345.379 753.225 343.898 753.225 342.376H751.225ZM752.033 345.728H728.737V347.728H752.033V345.728ZM727.744 346.85C728.149 350.132 729.31 352.795 731.302 354.74L732.699 353.308C731.107 351.754 730.093 349.553 729.729 346.606L727.744 346.85ZM731.302 354.74C733.313 356.703 735.949 357.648 739.105 357.648V355.648C736.373 355.648 734.272 354.844 732.699 353.308L731.302 354.74ZM739.105 357.648C741.09 357.648 742.901 357.45 744.531 357.042L744.046 355.102C742.604 355.462 740.96 355.648 739.105 355.648V357.648ZM744.556 357.036C746.141 356.595 747.662 356.044 749.119 355.382L748.291 353.562C746.932 354.18 745.509 354.695 744.021 355.108L744.556 357.036ZM747.74 354.735L749.084 359.663L751.014 359.137L749.67 354.209L747.74 354.735ZM749.643 358.486C748.177 359.138 746.514 359.673 744.648 360.088L745.082 362.04C747.056 361.601 748.849 361.028 750.455 360.314L749.643 358.486ZM744.627 360.093C742.799 360.539 740.726 360.768 738.401 360.768V362.768C740.854 362.768 743.09 362.527 745.102 362.035L744.627 360.093ZM728.673 343.056H746.913V341.056H728.673V343.056ZM747.913 342.056C747.913 338.653 747.061 335.88 745.214 333.888L743.747 335.248C745.144 336.754 745.913 338.973 745.913 342.056H747.913ZM745.214 333.888C743.366 331.895 740.838 330.944 737.761 330.944V332.944C740.401 332.944 742.352 333.743 743.747 335.248L745.214 333.888ZM737.761 330.944C735.019 330.944 732.702 331.926 730.883 333.888L732.35 335.248C733.774 333.711 735.553 332.944 737.761 332.944V330.944ZM730.892 333.879C729.068 335.799 728.033 338.534 727.678 341.953L729.667 342.159C729.995 339.007 730.923 336.75 732.342 335.257L730.892 333.879Z" fill="black"/>
</svg>
